<svg width="10" height="10" viewBox="0 0 10 10" fill="none" xmlns="http://www.w3.org/2000/svg">
<path d="M9.107 4.107H6.071C6.02353 4.107 5.978 4.08814 5.94443 4.05457C5.91086 4.021 5.892 3.97547 5.892 3.928V0.893C5.892 0.656162 5.79792 0.429024 5.63045 0.261554C5.46298 0.0940837 5.23584 0 4.999 0C4.76216 0 4.53502 0.0940837 4.36755 0.261554C4.20008 0.429024 4.106 0.656162 4.106 0.893V3.929C4.106 3.97647 4.08714 4.022 4.05357 4.05557C4.02 4.08914 3.97447 4.108 3.927 4.108H0.893C0.656162 4.108 0.429024 4.20208 0.261554 4.36955C0.0940837 4.53702 0 4.76416 0 5.001C0 5.23784 0.0940837 5.46498 0.261554 5.63245C0.429024 5.79992 0.656162 5.894 0.893 5.894H3.929C3.97647 5.894 4.022 5.91286 4.05557 5.94643C4.08914 5.98 4.108 6.02553 4.108 6.073V9.107C4.108 9.34384 4.20208 9.57098 4.36955 9.73845C4.53702 9.90592 4.76416 10 5.001 10C5.23784 10 5.46498 9.90592 5.63245 9.73845C5.79992 9.57098 5.894 9.34384 5.894 9.107V6.071C5.894 6.02353 5.91286 5.978 5.94643 5.94443C5.98 5.91086 6.02553 5.892 6.073 5.892H9.107C9.34384 5.892 9.57098 5.79792 9.73845 5.63045C9.90592 5.46298 10 5.23584 10 4.999C10 4.76216 9.90592 4.53502 9.73845 4.36755C9.57098 4.20008 9.34384 4.106 9.107 4.106V4.107Z" fill="#9299B8"/>
</svg>
